# xmcd
#
# Track frame offsets:
#	150
#	13310
#	46640
#	60625
#	75525
#	92940
#	116232
#	134987
#	151197
#	168927
# Disc length: 2479 seconds
# Revision: 5
# Processed by: cddbd v1.5.1PL0 Copyright (c) Steve Scherf et al.
#
# Submitted via: libkcddb 0.20
#
DISCID=8109ad0a
DTITLE=The Charlie Daniels Band - Listen Up!
DYEAR=1990
DGENRE=Country
TTITLE0=Let It Roll
TTITLE1=Rainbow Ride
TTITLE2=Roll Mississippi
TTITLE3=In America
TTITLE4=Still In Saigon
TTITLE5=Carolina (I Remember You)
TTITLE6=Feeling Free
TTITLE7=The Devil Went Down To Georgia
TTITLE8=Running With The Crowd
TTITLE9=Juanita
EXTD=devil
EXTT0=
EXTT1=
EXTT2=
EXTT3=
EXTT4=
EXTT5=
EXTT6=
EXTT7=
EXTT8=
EXTT9=
PLAYORDER=
